<?xml version="1.0" encoding="utf-8"?>
<!-- Generator: Adobe Illustrator 22.1.0, SVG Export Plug-In . SVG Version: 6.00 Build 0)  -->
<svg version="1.1" id="Layer_1" xmlns="http://www.w3.org/2000/svg" xmlns:xlink="http://www.w3.org/1999/xlink" x="0px" y="0px"
	 viewBox="0 0 36 9" style="enable-background:new 0 0 36 9;" xml:space="preserve">
<style type="text/css">
	.Drop_x0020_Shadow{fill:none;}
	.Round_x0020_Corners_x0020_2_x0020_pt{fill:#FFFFFF;stroke:#231F20;stroke-miterlimit:10;}
	.Live_x0020_Reflect_x0020_X{fill:none;}
	.Bevel_x0020_Soft{fill:url(#SVGID_1_);}
	.Dusk{fill:#FFFFFF;}
	.Foliage_GS{fill:#FFDD00;}
	.Pompadour_GS{fill-rule:evenodd;clip-rule:evenodd;fill:#44ACE1;}
	.st0{fill:#3197F4;}
</style>
<linearGradient id="SVGID_1_" gradientUnits="userSpaceOnUse" x1="-7" y1="-20.5" x2="-6.2929" y2="-19.7929">
	<stop  offset="0" style="stop-color:#DEDFE3"/>
	<stop  offset="0.1783" style="stop-color:#DADBDF"/>
	<stop  offset="0.3611" style="stop-color:#CECFD3"/>
	<stop  offset="0.546" style="stop-color:#B9BCBF"/>
	<stop  offset="0.7324" style="stop-color:#9CA0A2"/>
	<stop  offset="0.9181" style="stop-color:#787D7E"/>
	<stop  offset="1" style="stop-color:#656B6C"/>
</linearGradient>
<g>
	<g>
		<g>
			<path class="st0" d="M0,8.4V0h2.3v3.2L4.9,0h2.6L4.5,3.8l3.3,4.6H5.1L3,5.4L2.3,6v2.4H0z"/>
			<path class="st0" d="M11.7,3.2c-0.5,0-1,0.1-1.4,0.4C9.9,3.8,9.6,4.2,9.4,4.6v3.8H8.4V2.3h1v1.4c0.2-0.4,0.5-0.8,0.9-1
				c0.4-0.3,0.7-0.4,1.1-0.4c0.1,0,0.1,0,0.2,0c0.1,0,0.1,0,0.1,0V3.2z"/>
			<path class="st0" d="M26.2,8.4h-1.1V5c0-0.7-0.1-1.1-0.3-1.4c-0.2-0.3-0.5-0.5-0.9-0.5c-0.2,0-0.4,0-0.6,0.1
				c-0.2,0.1-0.4,0.2-0.6,0.3c-0.2,0.1-0.4,0.3-0.5,0.5c-0.1,0.2-0.3,0.4-0.3,0.7v3.7h-1.1V2.3h1v1.3c0.2-0.4,0.6-0.8,1.1-1
				c0.5-0.3,1-0.4,1.5-0.4c0.4,0,0.7,0.1,0.9,0.2c0.2,0.1,0.4,0.3,0.6,0.5c0.1,0.2,0.2,0.5,0.3,0.8c0.1,0.3,0.1,0.7,0.1,1V8.4z"/>
			<path class="st0" d="M27.8,8.4V2.3h1.1v6.2H27.8z"/>
			<path class="st0" d="M36,8.4h-1.1V5c0-0.7-0.1-1.1-0.3-1.4c-0.2-0.3-0.5-0.5-0.9-0.5c-0.2,0-0.4,0-0.6,0.1
				c-0.2,0.1-0.4,0.2-0.6,0.3c-0.2,0.1-0.4,0.3-0.5,0.5c-0.1,0.2-0.3,0.4-0.3,0.7v3.7h-1.1V2.3h1v1.3c0.2-0.4,0.6-0.8,1.1-1
				s1-0.4,1.5-0.4c0.4,0,0.7,0.1,0.9,0.2c0.2,0.1,0.4,0.3,0.6,0.5c0.1,0.2,0.2,0.5,0.3,0.8C36,4,36,4.4,36,4.7V8.4z"/>
		</g>
		<g>
			<path class="st0" d="M16,0.8c-2.3,0-4.2,1.8-4.2,4.1S13.7,9,16,9s4.2-1.8,4.2-4.1S18.3,0.8,16,0.8z M15.5,7.6
				c-0.2,0-0.4-0.2-0.4-0.4c0-0.2,0.1-0.3,0.3-0.4V5.6h-0.5c0,0-0.1,0-0.1-0.1c0,0,0-0.1,0.1-0.1h0.6c0,0,0.1,0,0.1,0.1v1.4
				c0.2,0,0.3,0.2,0.3,0.4C15.9,7.5,15.7,7.6,15.5,7.6z M16.4,7.6c-0.2,0-0.4-0.2-0.4-0.4c0-0.2,0.1-0.3,0.3-0.4V5.6h-0.5
				c0,0-0.1,0-0.1-0.1c0,0,0-0.1,0.1-0.1h0.6c0,0,0.1,0,0.1,0.1v1.4c0.2,0,0.3,0.2,0.3,0.4C16.8,7.5,16.6,7.6,16.4,7.6z M16.3,2.7
				C16.3,2.7,16.3,2.6,16.3,2.7c0.4-0.1,0.8,0.1,1,0.3c0,0,0,0.1,0,0.1c0,0,0,0-0.1,0c0,0-0.1,0-0.1,0C17,2.9,16.7,2.8,16.3,2.7
				C16.3,2.8,16.3,2.7,16.3,2.7z M18,7.1c-0.2,0-0.3-0.1-0.4-0.3h-0.3c0,0-0.1,0-0.1-0.1V5.6h-0.5c0,0-0.1,0-0.1-0.1
				c0,0,0-0.1,0.1-0.1h0.6c0,0,0.1,0,0.1,0.1v1.1h0.2c0-0.2,0.2-0.3,0.4-0.3c0.2,0,0.4,0.2,0.4,0.4S18.2,7.1,18,7.1z M17.4,3.4
				c0,0,0-0.1,0.1-0.1c0,0,0.1,0,0.1,0c0.1,0.1,0.1,0.3,0.1,0.4c0,0,0,0.1-0.1,0.1h0c0,0-0.1,0-0.1-0.1C17.4,3.7,17.4,3.6,17.4,3.4z
				 M17.8,5.6L17.8,5.6c-0.1,0-0.1,0-0.1-0.1c0,0,0-0.1,0.1-0.1h0c0.4,0,0.8-0.3,0.8-0.8c0-0.4-0.2-0.7-0.6-0.8c0,0-0.1,0-0.1-0.1
				c0-0.8-0.7-1.5-1.5-1.5c-0.5,0-1,0.3-1.3,0.8c0,0-0.1,0.1-0.1,0c-0.1,0-0.2,0-0.2,0c-0.3,0-0.5,0.2-0.6,0.5c0,0,0,0.1-0.1,0.1
				c-0.4,0.1-0.7,0.4-0.7,0.9c0,0.5,0.4,0.9,0.9,0.9h0.3c0,0,0.1,0,0.1,0.1v1.2c0,0,0,0.1-0.1,0.1h-0.3c0,0.2-0.2,0.3-0.4,0.3
				c-0.2,0-0.4-0.2-0.4-0.4s0.2-0.4,0.4-0.4c0.2,0,0.3,0.1,0.4,0.3h0.2v-1h-0.2c-0.6,0-1.1-0.5-1.1-1.1c0-0.5,0.3-0.9,0.8-1
				c0.1-0.3,0.4-0.6,0.7-0.6c0.1,0,0.2,0,0.2,0c0.3-0.5,0.8-0.8,1.4-0.8c0.4,0,0.9,0.2,1.2,0.5c0.3,0.3,0.5,0.7,0.5,1.1
				c0.2,0.1,0.3,0.2,0.5,0.3c0.1,0.2,0.2,0.4,0.2,0.6C18.7,5.1,18.3,5.6,17.8,5.6z"/>
		</g>
	</g>
	<ellipse class="st0" cx="28.4" cy="0.7" rx="0.7" ry="0.7"/>
</g>
</svg>
