<svg id="Layer_1" data-name="Layer 1" xmlns="http://www.w3.org/2000/svg" viewBox="0 0 1920 1080"><defs><style>.cls-1{fill:#ef3333;}.cls-2{fill:#fff;}</style></defs><title>Kronin-Logo-Standard_1</title><path d="M525.85,295.14H450a9,9,0,0,0-7.17,3.5l-93.5,121.25V301.29a6.15,6.15,0,0,0-6.15-6.15h-58.6a6.15,6.15,0,0,0-6.19,6.15V594.73a6.15,6.15,0,0,0,6.12,6.15h58.71a6.12,6.12,0,0,0,6.11-6.15V516.11l25.24-30.48,43.36,62.86q12.38,18.09,23.81,28.81a91.22,91.22,0,0,0,23.82,16.44,87.36,87.36,0,0,0,26.67,7.37c7.64.89,16.24,1.43,25.75,1.6a7,7,0,0,0,7.1-6.93V541.39a4.48,4.48,0,0,0-4.21-4.45c-9.68-.48-17.09-2.65-22.22-6.56q-8.82-6.68-19.3-21.44l-56.19-82.39L527.82,299.32A2.56,2.56,0,0,0,525.85,295.14Z"/><path d="M717,371.14a90.56,90.56,0,0,0-9.35-1.73,122.19,122.19,0,0,0-15-1A66.64,66.64,0,0,0,657.4,378a95.83,95.83,0,0,0-27.62,25.72c-1.7-13.11-4.69-24.26-9.07-33.43a5.47,5.47,0,0,0-5.77-3.13L554,376.85a3.28,3.28,0,0,0-2.55,4.48,113.74,113.74,0,0,1,5.91,19.5,152.36,152.36,0,0,1,2.86,31.46V594.73a6.15,6.15,0,0,0,6.15,6.15H625a6.16,6.16,0,0,0,6.18-6.15v-122c3.16-9.51,9.21-17.94,18.07-25.25s19.85-10.93,32.89-10.93A57.78,57.78,0,0,1,696,438c2,.51,4,1.06,5.88,1.67a4.42,4.42,0,0,0,5.68-3.3l12.8-60A4.42,4.42,0,0,0,717,371.14Z"/><path d="M957.81,438.72a112.2,112.2,0,0,0-25-37.89,107,107,0,0,0-38-24,135.46,135.46,0,0,0-48.25-8.35q-26.6,0-48.71,8.59a112.12,112.12,0,0,0-38.26,24.29A113.57,113.57,0,0,0,734.15,439q-9.27,21.92-9.27,49.06,0,28.08,9,50.49a105.78,105.78,0,0,0,63.23,61.66,137.92,137.92,0,0,0,48.48,8.33,148.84,148.84,0,0,0,15.84-.82c19.77-20,46.85-34.07,77.49-39.14a114.18,114.18,0,0,0,18.86-31.25q9-22.12,9-49.27T957.81,438.72Zm-75.12,93.63q-13.16,16.15-36.59,16.14c-16,0-28.3-5.47-37.1-16.38s-13.15-25.68-13.15-44.34,4.38-33.46,13.15-44.37S830.13,427,846.1,427q23.45,0,36.59,16.37t13.18,44.37Q895.87,516.21,882.69,532.35Z"/><path d="M1207.86,393.7q-21.34-25.23-63.12-25.24a107.24,107.24,0,0,0-36.08,6.21,85.66,85.66,0,0,0-31.36,19.5,106.29,106.29,0,0,0-7.61-23.85,5.51,5.51,0,0,0-5.81-3.16l-60.82,9.65a3.37,3.37,0,0,0-2.61,4.59,114.6,114.6,0,0,1,5.91,19.43,152.41,152.41,0,0,1,2.85,31.46V574.82c.61-.34,1.26-.68,1.9-1a128.14,128.14,0,0,1,60.62-15.09c2.85,0,5.67.11,8.46.28V456.55c3.46-6,9-11.58,16.64-16.65s16.51-7.61,26.67-7.61q18.6,0,26.67,11.42c5.4,7.61,8.09,19.54,8.09,35.71V572.1c3.87-.31,7.75-.44,11.69-.44a152.53,152.53,0,0,1,59.28,11.82v-115Q1229.23,418.93,1207.86,393.7Z"/><path d="M1355,376.58h-84.36a6.15,6.15,0,0,0-6.15,6.15v49.6a6.15,6.15,0,0,0,6.15,6.15h19.57V584.94c20.08-13.15,44.37-22.05,71-25.07V382.73A6.18,6.18,0,0,0,1355,376.58Z"/><path d="M1612.2,393.7q-21.36-25.23-63.16-25.24a107.54,107.54,0,0,0-36.08,6.21,85.3,85.3,0,0,0-31.33,19.5,106.27,106.27,0,0,0-7.64-23.85,5.46,5.46,0,0,0-5.81-3.16l-60.78,9.65a3.4,3.4,0,0,0-2.62,4.62,111,111,0,0,1,5.88,19.4,152.41,152.41,0,0,1,2.85,31.46V561.6a165.89,165.89,0,0,1,40.26,12.78A65.52,65.52,0,0,1,1484.48,559V456.55c3.5-6,9-11.58,16.69-16.65s16.47-7.61,26.67-7.61q18.54,0,26.67,11.42c5.36,7.61,8.08,19.54,8.08,35.71v96.25a149.22,149.22,0,0,1,71-18V468.48Q1633.57,418.93,1612.2,393.7Z"/><path class="cls-1" d="M1365.43,303.22a41.66,41.66,0,0,1-12.38,30.24,40.46,40.46,0,0,1-30,12.62,42.77,42.77,0,0,1-30.48-72.86q12.38-12.39,30.48-12.38a42.27,42.27,0,0,1,42.38,42.38Z"/><path class="cls-2" d="M1011.11,573.8c-.64.34-1.29.68-1.9,1v-1.6C1009.86,573.39,1010.5,573.6,1011.11,573.8Z"/><path d="M1641.28,807.1c-.92-2.14-1.84-4.45-2.72-6.83-.44-1.12-.85-2.27-1.26-3.43-2-5.5-2.92-13.08-2.92-22.69V591.36a4.11,4.11,0,0,0-4.11-4.07H1611a4.09,4.09,0,0,0-4.08,4.07V655a106.67,106.67,0,0,0-17.19-4.82,108.52,108.52,0,0,0-20.58-1.7c-3,0-5.88.1-8.74.31a97.32,97.32,0,0,0-24.25,4.82,69.46,69.46,0,0,0-10.09,4.32,66.5,66.5,0,0,0-16,11.65,71.72,71.72,0,0,0-12.3,16.31,76.83,76.83,0,0,0-3.94,8c-.4.88-.74,1.77-1.12,2.69q-6.36,16.15-6.35,38.12a114,114,0,0,0,3.19,27.68c.48,2,1,3.91,1.6,5.81a81.1,81.1,0,0,0,13.76,26.47A60.7,60.7,0,0,0,1527,811.93c8.8,4.14,18.72,6.18,29.73,6.18a66.51,66.51,0,0,0,28.84-6.52,55.36,55.36,0,0,0,18.66-14.2,49.69,49.69,0,0,0,3.66-4.69,55.32,55.32,0,0,0,1.09,5.54,68.69,68.69,0,0,0,2.35,8c1,2.68,2,5.16,3.16,7.51a6.1,6.1,0,0,0,7,3.19l17-4.18A4.18,4.18,0,0,0,1641.28,807.1ZM1606.89,766a116.42,116.42,0,0,1-7.23,9.24,46.1,46.1,0,0,1-9.79,8.57,53.33,53.33,0,0,1-11.85,5.81c-.34.13-.68.27-1,.37a48.57,48.57,0,0,1-15.46,2.38q-22.32-.36-34.69-16.45c-7.75-10-11.82-22.79-12.33-38.29v0c0-1,0-2.07,0-3.12s0-1.84,0-2.76c.2-9.78,1.63-18.21,4.24-25.31a55.8,55.8,0,0,1,9.25-16.48c.78-.95,1.59-1.86,2.44-2.71a44.23,44.23,0,0,1,17.36-11,65.34,65.34,0,0,1,21.31-3.43c9.13,0,16.64.88,22.49,2.58a83.25,83.25,0,0,1,15.28,6Z"/><path d="M1025.79,796.13a3.52,3.52,0,0,1-1.26,1.77q-8.5,6.87-22.22,13-16.15,7.23-42.26,7.2-23.34,0-42.4-8.39a94.25,94.25,0,0,1-31.39-22.22c-.44-.44-.85-.88-1.26-1.33a107.76,107.76,0,0,1-21.13-36.08q-7.54-20.94-7.54-46t8-46A109.43,109.43,0,0,1,886.73,622a103.39,103.39,0,0,1,33.67-23.72,102.05,102.05,0,0,1,41.72-8.56,123,123,0,0,1,23.51,2.07,82,82,0,0,1,13.76,3.77,97.27,97.27,0,0,1,23.14,12,4,4,0,0,1,.85,5.61l-10.77,15.08a4.12,4.12,0,0,1-5.71.92,78.32,78.32,0,0,0-18.51-9.62,74.73,74.73,0,0,0-23-4c-1.09,0-2.18-.07-3.3-.07a76.21,76.21,0,0,0-30.23,6A68.66,68.66,0,0,0,907.49,639a84.79,84.79,0,0,0-16.31,28q-6,16.47-6,37.1,0,20.24,5.84,36.73a81,81,0,0,0,16.14,27.82A72.37,72.37,0,0,0,931,786.17a69.13,69.13,0,0,0,29,6.19c14,0,24.87-1.73,32.65-5.17a80.47,80.47,0,0,0,10.46-5.53,63.83,63.83,0,0,0,6.8-4.73,4,4,0,0,1,5.84,1l9.62,14.51c.1.14.17.27.27.44A4.08,4.08,0,0,1,1025.79,796.13Z"/><path d="M1051.78,594.63v-3.27a4.09,4.09,0,0,1,4.08-4.07h19.33a4.09,4.09,0,0,1,4.08,4.07v180c0,6.48.81,11.34,2.44,14.64a11.05,11.05,0,0,0,2,2.89,15.19,15.19,0,0,0,8.39,4.11,24.54,24.54,0,0,0,4.31.34,58.38,58.38,0,0,0,11.39-1,3.4,3.4,0,0,1,4,2.65v0a5.2,5.2,0,0,1,.06.68v13.12a7.25,7.25,0,0,1-5.53,7.13,57.84,57.84,0,0,1-13.36,1.46,67.6,67.6,0,0,1-16.58-1.9,28.26,28.26,0,0,1-13.11-7,30.1,30.1,0,0,1-5.84-7.92,40.76,40.76,0,0,1-2.62-6.15,57.08,57.08,0,0,1-2.68-13.76c-.24-2.79-.38-5.77-.38-8.93V594.63Z"/><path d="M1284.48,700a82.06,82.06,0,0,0-16.86-27,77.38,77.38,0,0,0-25.75-18c-1.29-.54-2.58-1.08-3.87-1.56a81.68,81.68,0,0,0-28.61-5,88.79,88.79,0,0,0-16.07,1.43,80.51,80.51,0,0,0-17,5.09,78.65,78.65,0,0,0-26.3,18,84.91,84.91,0,0,0-17.33,27,86.91,86.91,0,0,0-6.35,33.33,92.48,92.48,0,0,0,6,33.5,86.55,86.55,0,0,0,7.51,15.15,79.12,79.12,0,0,0,9.14,11.82,77.12,77.12,0,0,0,25.58,17.84c2,.88,4.11,1.7,6.22,2.38a83.66,83.66,0,0,0,26.6,4.14,81.16,81.16,0,0,0,75.43-48.18c.47-1,.91-2.07,1.36-3.15a84.33,84.33,0,0,0,3.6-11,90.36,90.36,0,0,0,2.75-22.45A91.5,91.5,0,0,0,1284.48,700Zm-115.62,75.93a52.36,52.36,0,0,1-7.37-11,63.5,63.5,0,0,1-3.27-7.68,77.55,77.55,0,0,1,0-47.77,54.82,54.82,0,0,1,10.64-18.55,49.21,49.21,0,0,1,17-12.2,51.72,51.72,0,0,1,11.25-3.43,60,60,0,0,1,11.24-1,54.27,54.27,0,0,1,22.32,4.45c1.29.58,2.55,1.19,3.74,1.87a49.68,49.68,0,0,1,13.28,10.33,53.42,53.42,0,0,1,10.81,18.72,72.9,72.9,0,0,1,3.8,23.72,75.4,75.4,0,0,1-1.63,16,64.79,64.79,0,0,1-2.17,7.88,55.27,55.27,0,0,1-10.81,18.72,47.91,47.91,0,0,1-17,12.2,55.91,55.91,0,0,1-22.32,4.28,57.28,57.28,0,0,1-22.49-4.28A46.29,46.29,0,0,1,1168.86,775.88Z"/><path d="M1460.77,812.81,1444,817a6.1,6.1,0,0,1-6.93-3.06,60.86,60.86,0,0,1-3.7-9.2,94.89,94.89,0,0,1-2.62-10.37c-.3-1.49-.54-3-.75-4.41a50.09,50.09,0,0,1-4.21,5.81,76.3,76.3,0,0,1-15.73,14.3q-13,9.08-33.67,9.1-26.74,0-41.55-17.19a51.77,51.77,0,0,1-6-8.66Q1320,777.67,1320,753.9V657a4.1,4.1,0,0,1,4.08-4.08h19.33a4.1,4.1,0,0,1,4.08,4.08v87.31q0,49.14,33.12,49.1c9.21,0,16.82-1.77,22.94-5.3a68.09,68.09,0,0,0,15-11.52,65.59,65.59,0,0,0,10.67-17.19V657a4.1,4.1,0,0,1,4.11-4.08h19.3a4.1,4.1,0,0,1,4.08,4.08V774.15c0,3.6.13,6.89.4,9.92v0a53.76,53.76,0,0,0,2.52,12.74c1.32,3.67,2.65,7.1,4,10.26A4.2,4.2,0,0,1,1460.77,812.81Z"/></svg>