<?xml version="1.0" encoding="utf-8"?>
<!-- Generator: Adobe Illustrator 22.1.0, SVG Export Plug-In . SVG Version: 6.00 Build 0)  -->
<svg version="1.1" id="Layer_1" xmlns="http://www.w3.org/2000/svg" xmlns:xlink="http://www.w3.org/1999/xlink" x="0px" y="0px"
	 viewBox="0 0 29 29" style="enable-background:new 0 0 29 29;" xml:space="preserve">
<style type="text/css">
	.st0{fill:rgb(0, 172, 237);}
</style>
<g>
	<rect x="9" y="8.8" class="st0" width="11.3" height="11.3"/>
	<path class="st0" d="M29,9.3V7.6h-3.7V3.7h-3.9V0h-1.7v3.7h-2.3V0h-1.7v3.7h-2.3V0h-1.7v3.7H9.3V0H7.6v3.7H3.7v3.9H0v1.7h3.7v2.3H0
		v1.7h3.7v2.3H0v1.7h3.7v2.3H0v1.7h3.7v3.9h3.9V29h1.7v-3.7h2.3V29h1.7v-3.7h2.3V29h1.7v-3.7h2.3V29h1.7v-3.7h3.9v-3.9H29v-1.7h-3.7
		v-2.3H29v-1.7h-3.7v-2.3H29v-1.7h-3.7V9.3H29L29,9.3z M22,21.8H7.3V7.1H22C22,7.1,22,21.8,22,21.8z"/>
</g>
</svg>
