<?xml version="1.0" encoding="utf-8"?>
<!-- Generator: Adobe Illustrator 22.1.0, SVG Export Plug-In . SVG Version: 6.00 Build 0)  -->
<svg version="1.1" id="Layer_1" xmlns="http://www.w3.org/2000/svg" xmlns:xlink="http://www.w3.org/1999/xlink" x="0px" y="0px"
	 viewBox="0 0 50 50" style="enable-background:new 0 0 50 50;" xml:space="preserve">
<style type="text/css">
	.Drop_x0020_Shadow{fill:none;}
	.Round_x0020_Corners_x0020_2_x0020_pt{fill:#FFFFFF;stroke:#231F20;stroke-miterlimit:10;}
	.Live_x0020_Reflect_x0020_X{fill:none;}
	.Bevel_x0020_Soft{fill:url(#SVGID_1_);}
	.Dusk{fill:#FFFFFF;}
	.Foliage_GS{fill:#FFDD00;}
	.Pompadour_GS{fill-rule:evenodd;clip-rule:evenodd;fill:#44ACE1;}
	.st0{fill:#F8CA3D;}
	.st1{fill:#FFFFFF;}
</style>
<linearGradient id="SVGID_1_" gradientUnits="userSpaceOnUse" x1="0" y1="0" x2="0.7071" y2="0.7071">
	<stop  offset="0" style="stop-color:#DEDFE3"/>
	<stop  offset="0.1783" style="stop-color:#DADBDF"/>
	<stop  offset="0.3611" style="stop-color:#CECFD3"/>
	<stop  offset="0.546" style="stop-color:#B9BCBF"/>
	<stop  offset="0.7324" style="stop-color:#9CA0A2"/>
	<stop  offset="0.9181" style="stop-color:#787D7E"/>
	<stop  offset="1" style="stop-color:#656B6C"/>
</linearGradient>
<circle class="st0" cx="25" cy="25" r="25"/>
<g>
	<rect x="19.4" y="19.4" class="st1" width="11.3" height="11.3"/>
	<path class="st1" d="M39.3,19.9v-1.7h-3.7v-3.9h-3.9v-3.7h-1.7v3.7h-2.3v-3.7h-1.7v3.7h-2.3v-3.7h-1.7v3.7h-2.3v-3.7h-1.7v3.7h-3.9
		v3.9h-3.7v1.7h3.7v2.3h-3.7v1.7h3.7v2.3h-3.7v1.7h3.7v2.3h-3.7v1.7h3.7v3.9h3.9v3.7h1.7v-3.7h2.3v3.7h1.7v-3.7h2.3v3.7h1.7v-3.7
		h2.3v3.7h1.7v-3.7h3.9v-3.9h3.7v-1.7h-3.7v-2.3h3.7v-1.7h-3.7v-2.3h3.7v-1.7h-3.7v-2.3L39.3,19.9L39.3,19.9z M32.3,32.3H17.7V17.7
		h14.6V32.3z"/>
</g>
</svg>
