<?xml version="1.0" encoding="utf-8"?>
<!-- Generator: Adobe Illustrator 22.1.0, SVG Export Plug-In . SVG Version: 6.00 Build 0)  -->
<svg version="1.1" id="Layer_1" xmlns="http://www.w3.org/2000/svg" xmlns:xlink="http://www.w3.org/1999/xlink" x="0px" y="0px"
	 viewBox="0 0 50 50" style="enable-background:new 0 0 50 50;" xml:space="preserve">
<style type="text/css">
	.Drop_x0020_Shadow{fill:none;}
	.Round_x0020_Corners_x0020_2_x0020_pt{fill:#FFFFFF;stroke:#231F20;stroke-miterlimit:10;}
	.Live_x0020_Reflect_x0020_X{fill:none;}
	.Bevel_x0020_Soft{fill:url(#SVGID_1_);}
	.Dusk{fill:#FFFFFF;}
	.Foliage_GS{fill:#FFDD00;}
	.Pompadour_GS{fill-rule:evenodd;clip-rule:evenodd;fill:#44ACE1;}
	.st0{fill:#F8CA3D;}
	.st1{fill:#FFFFFF;}
</style>
<linearGradient id="SVGID_1_" gradientUnits="userSpaceOnUse" x1="0" y1="0" x2="0.7071" y2="0.7071">
	<stop  offset="0" style="stop-color:#DEDFE3"/>
	<stop  offset="0.1783" style="stop-color:#DADBDF"/>
	<stop  offset="0.3611" style="stop-color:#CECFD3"/>
	<stop  offset="0.546" style="stop-color:#B9BCBF"/>
	<stop  offset="0.7324" style="stop-color:#9CA0A2"/>
	<stop  offset="0.9181" style="stop-color:#787D7E"/>
	<stop  offset="1" style="stop-color:#656B6C"/>
</linearGradient>
<circle class="st0" cx="25" cy="25" r="25"/>
<g>
	<path class="st1" d="M34.2,15.9c-2.6-0.3-2.4,2-2.9,3.8c-0.3,0.9-1.4,0.4-2.1,0.4c-0.6-0.1-1.1,0-1.6,0.2c-2-1.7-4.6-2.7-7.4-2.7
		c-6.3,0-11.4,5.1-11.4,11.4c0,6.3,5.1,11.4,11.4,11.4c6.3,0,11.4-5.1,11.4-11.4c0-2.8-1-5.4-2.8-7.4c0.3,0,0.6,0,0.9,0.1
		c0.9,0.2,1.8,0,2.4-0.7c0.5-0.5,0.6-1.3,0.7-2c0.1-1,0.1-1.8,1.3-1.6C35.1,17.5,35.1,16,34.2,15.9L34.2,15.9z M16.4,24.7
		c-1.5,1.1-2.4,2.9-2.4,4.7c0,0.7-0.6,1.3-1.3,1.3c-0.7,0-1.3-0.6-1.3-1.3c0-2.7,1.3-5.3,3.6-6.9c0.6-0.4,1.4-0.3,1.9,0.3
		C17.2,23.4,17,24.3,16.4,24.7L16.4,24.7z M16.4,24.7"/>
	<path class="st1" d="M29.2,13.9c0.2,0.4,0.6,0.5,1,0.4c0.4-0.2,0.5-0.6,0.4-1l-1.6-3.4c-0.2-0.4-0.6-0.5-1-0.4
		c-0.1,0.1-0.2,0.1-0.3,0.2c-0.1,0.2-0.2,0.5-0.1,0.7L29.2,13.9z M29.2,13.9"/>
	<path class="st1" d="M33.8,14.3c0.4,0.2,0.8,0,1-0.3l1.6-3.4c0.2-0.4,0-0.8-0.3-1c-0.3-0.2-0.7,0-0.9,0.2c0,0,0,0.1-0.1,0.1
		l-1.6,3.4C33.3,13.7,33.5,14.1,33.8,14.3L33.8,14.3z M33.8,14.3"/>
	<path class="st1" d="M41.2,15.8c-0.1-0.4-0.5-0.6-0.9-0.5l-3.6,0.9c-0.2,0-0.3,0.1-0.4,0.3c-0.1,0.2-0.2,0.4-0.1,0.6
		c0.1,0.4,0.5,0.6,0.9,0.5l3.6-0.9C41.1,16.6,41.3,16.2,41.2,15.8L41.2,15.8z M41.2,15.8"/>
	<path class="st1" d="M39.6,22.7l-3-2.1c-0.3-0.2-0.8-0.2-1,0.2c-0.2,0.3-0.2,0.8,0.2,1l3,2.1c0.3,0.2,0.8,0.2,1-0.2
		C40,23.4,39.9,23,39.6,22.7L39.6,22.7z M39.6,22.7"/>
</g>
</svg>
