<?xml version="1.0" encoding="utf-8"?>
<!-- Generator: Adobe Illustrator 22.1.0, SVG Export Plug-In . SVG Version: 6.00 Build 0)  -->
<svg version="1.1" id="Layer_1" xmlns="http://www.w3.org/2000/svg" xmlns:xlink="http://www.w3.org/1999/xlink" x="0px" y="0px"
	 viewBox="0 0 32 31" style="enable-background:new 0 0 32 31;" xml:space="preserve">
<style type="text/css">
		.st0{fill:rgb(0, 172, 237);}
</style>
<g>
	<path class="st0" d="M25.1,6.4c-2.6-0.3-2.4,2-2.9,3.8c-0.3,0.9-1.4,0.4-2.1,0.4c-0.6-0.1-1.1,0-1.6,0.2c-2-1.7-4.5-2.7-7.3-2.7
		C5,8.2,0,13.3,0,19.6S5,31,11.3,31s11.3-5.1,11.3-11.4c0-2.8-1-5.4-2.8-7.4c0.3,0,0.6,0,0.9,0.1c0.9,0.2,1.8,0,2.4-0.7
		c0.5-0.5,0.6-1.3,0.7-2c0.1-1,0.1-1.8,1.3-1.6C26,8.1,26,6.5,25.1,6.4L25.1,6.4z M7.5,15.3C6,16.4,5.1,18.2,5.1,20
		c0,0.7-0.6,1.3-1.3,1.3S2.6,20.7,2.6,20c0-2.7,1.3-5.3,3.6-6.9c0.6-0.4,1.4-0.3,1.9,0.3C8.3,14,8.1,14.9,7.5,15.3L7.5,15.3z"/>
	<path class="st0" d="M20.1,4.4c0.2,0.4,0.6,0.5,1,0.4c0.4-0.2,0.5-0.6,0.4-1l-1.6-3.4c-0.2-0.4-0.6-0.5-1-0.4
		c-0.1,0.1-0.2,0.1-0.3,0.2c-0.1,0.2-0.2,0.5-0.1,0.7L20.1,4.4z"/>
	<path class="st0" d="M24.7,4.8c0.4,0.2,0.8,0,1-0.3l1.6-3.4c0.2-0.4,0-0.8-0.3-1s-0.7,0-0.9,0.2c0,0,0,0.1-0.1,0.1l-1.6,3.4
		C24.2,4.2,24.4,4.6,24.7,4.8L24.7,4.8z"/>
	<path class="st0" d="M32,6.3c-0.1-0.4-0.5-0.6-0.9-0.5l-3.6,0.9c-0.2,0-0.3,0.1-0.4,0.3C27,7.3,26.9,7.5,27,7.7
		c0.1,0.4,0.5,0.6,0.9,0.5l3.6-0.9C31.9,7.2,32.1,6.7,32,6.3L32,6.3z"/>
	<path class="st0" d="M30.4,13.3l-3-2.1c-0.3-0.2-0.8-0.2-1,0.2c-0.2,0.3-0.2,0.8,0.2,1l3,2.1c0.3,0.2,0.8,0.2,1-0.2
		C30.8,14,30.7,13.6,30.4,13.3L30.4,13.3z"/>
</g>
</svg>
