<?xml version="1.0" encoding="utf-8"?>
<!-- Generator: Adobe Illustrator 22.1.0, SVG Export Plug-In . SVG Version: 6.00 Build 0)  -->
<svg version="1.1" id="Layer_1" xmlns="http://www.w3.org/2000/svg" xmlns:xlink="http://www.w3.org/1999/xlink" x="0px" y="0px"
	 viewBox="0 0 50 50" style="enable-background:new 0 0 50 50;" xml:space="preserve">
<style type="text/css">
	.st0{fill:#F8CA3D;}
	.st1{fill:#FFFFFF;}
</style>
<circle class="st0" cx="25" cy="25" r="25"/>
<g>
	<path class="st1" d="M36,31.6v-4.3h-1.6v3.4c0,0.5-0.4,1-1,1H13.9c-0.5,0-1-0.4-1-1V19c0-0.5,0.4-1,1-1h11.2v-1H12.4
		c-0.6,0-1.1,0.5-1.1,1.1v14.6l-2.8,3.4c0,0.9,0.8,1.7,1.7,1.7h27c0.9,0,1.7-0.8,1.7-1.7L36,32.8V31.6z M25.9,37.3h-4.5
		c-0.2,0-0.3-0.1-0.3-0.3s0.1-0.3,0.3-0.3h4.5c0.2,0,0.3,0.1,0.3,0.3C26.2,37.1,26.1,37.3,25.9,37.3L25.9,37.3z M19,36.1l0.9-1h7.6
		l0.9,1H19z"/>
	<rect x="21.8" y="25.3" class="st1" width="2.3" height="2.3"/>
	<rect x="23.3" y="22.1" class="st1" width="2.3" height="2.3"/>
	<rect x="25.6" y="25" class="st1" width="2.3" height="2.3"/>
	<rect x="27.5" y="21.1" class="st1" width="2.8" height="2.8"/>
	<rect x="31.4" y="12.6" class="st1" width="2.8" height="2.8"/>
	<rect x="26.4" y="17.6" class="st1" width="2.8" height="2.8"/>
	<rect x="30.7" y="16.4" class="st1" width="4" height="4"/>
	<rect x="33.7" y="21.2" class="st1" width="4.8" height="4.8"/>
	<rect x="35.5" y="12.2" class="st1" width="6" height="6"/>
	<rect x="30" y="24.2" class="st1" width="2.8" height="2.8"/>
</g>
</svg>
