<?xml version="1.0" encoding="utf-8"?>
<!-- Generator: Adobe Illustrator 22.1.0, SVG Export Plug-In . SVG Version: 6.00 Build 0)  -->
<svg version="1.1" id="Layer_1" xmlns="http://www.w3.org/2000/svg" xmlns:xlink="http://www.w3.org/1999/xlink" x="0px" y="0px"
	 viewBox="0 0 34 21" style="enable-background:new 0 0 34 21;" xml:space="preserve">
<style type="text/css">
	.st0{fill:rgb(0, 172, 237);}
</style>
<g>
	<path class="st0" d="M30.8,2.2V1.3h-4.3v3.5h4.3V3.9H34V2.1L30.8,2.2L30.8,2.2z"/>
	<path class="st0" d="M30.8,8.7h-4.3v3.5h4.3v-0.9H34V9.5h-3.2V8.7z"/>
	<path class="st0" d="M30.8,16.3h-4.3v3.5h4.3v-0.9H34v-1.8h-3.2V16.3z"/>
	<path class="st0" d="M3.1,2.5H0v1.8h3.1v0.9h4.2V1.7H3.1V2.5z"/>
	<path class="st0" d="M3.1,9.9H0v1.8h3.1v0.9h4.2V9.1H3.1V9.9z"/>
	<path class="st0" d="M3.1,17.5H0v1.8h3.1v0.9h4.2v-3.5H3.1V17.5z"/>
	<path class="st0" d="M25.1,0H8.9C8.5,0,8.2,0.3,8.2,0.7v19.6c0,0.4,0.3,0.7,0.7,0.7h16.2c0.4,0,0.7-0.3,0.7-0.7V0.7
		C25.9,0.3,25.5,0,25.1,0L25.1,0z M11.5,5C10.7,5,10,4.3,10,3.5S10.7,2,11.5,2S13,2.7,13,3.5S12.3,5,11.5,5L11.5,5z"/>
</g>
</svg>
