<?xml version="1.0" encoding="utf-8"?>
<!-- Generator: Adobe Illustrator 22.1.0, SVG Export Plug-In . SVG Version: 6.00 Build 0)  -->
<svg version="1.1" id="Layer_1" xmlns="http://www.w3.org/2000/svg" xmlns:xlink="http://www.w3.org/1999/xlink" x="0px" y="0px"
	 viewBox="0 0 50 50" style="enable-background:new 0 0 50 50;" xml:space="preserve">
<style type="text/css">
	.st0{fill:#F8CA3D;}
	.st1{fill:#FFFFFF;}
</style>
<circle class="st0" cx="25" cy="25" r="25"/>
<g>
	<path class="st1" d="M39,16.7v-0.9h-4.3v3.5H39v-0.9h3.2v-1.8H39z M39,16.7"/>
	<path class="st1" d="M39,23.2h-4.3v3.5H39v-0.9h3.2v-1.8H39V23.2z M39,23.2"/>
	<path class="st1" d="M39,30.8h-4.3v3.5H39v-0.9h3.2v-1.8H39V30.8z M39,30.8"/>
	<path class="st1" d="M11,17H7.9v1.8H11v0.9h4.2v-3.5H11V17z M11,17"/>
	<path class="st1" d="M11,24.4H7.9v1.8H11v0.9h4.2v-3.5H11V24.4z M11,24.4"/>
	<path class="st1" d="M11,32H7.9v1.8H11v0.9h4.2v-3.5H11V32z M11,32"/>
	<path class="st1" d="M33.2,14.5H16.9c-0.4,0-0.7,0.3-0.7,0.7v19.6c0,0.4,0.3,0.7,0.7,0.7h16.3c0.4,0,0.7-0.3,0.7-0.7V15.2
		C34,14.8,33.6,14.5,33.2,14.5L33.2,14.5z M19.5,19.5c-0.8,0-1.5-0.7-1.5-1.5c0-0.8,0.7-1.5,1.5-1.5c0.8,0,1.5,0.7,1.5,1.5
		C21,18.8,20.3,19.5,19.5,19.5L19.5,19.5z M19.5,19.5"/>
</g>
</svg>
