<?xml version="1.0" encoding="utf-8"?>
<!-- Generator: Adobe Illustrator 22.1.0, SVG Export Plug-In . SVG Version: 6.00 Build 0)  -->
<svg version="1.1" id="Layer_1" xmlns="http://www.w3.org/2000/svg" xmlns:xlink="http://www.w3.org/1999/xlink" x="0px" y="0px"
	 viewBox="0 0 25 25" style="enable-background:new 0 0 25 25;" xml:space="preserve">
<style type="text/css">
	.st0{fill:rgb(0, 172, 237);}
</style>
<g>
	<path class="st0" d="M25,13.1h-3.9l0,0c0.5,0.5,0.8,1.2,0.8,1.9c0,0.8-0.3,1.5-0.8,2s-1.2,0.8-1.9,0.8h-0.1
		c-1.4-0.1-2.6-1.2-2.7-2.6c0-0.8,0.3-1.5,0.8-2l0,0h-3.7v3.6c0,0.9-0.7,1.6-1.6,1.6h-0.4l-0.2-0.3c-0.3-0.4-0.7-0.6-1.2-0.6
		c-0.7,0-1.2,0.6-1.3,1.3c0,0.4,0.1,0.7,0.4,1c0.3,0.3,0.6,0.4,1,0.4c0.5,0,0.9-0.2,1.1-0.6l0.2-0.3h0.2c0.9,0,1.6,0.7,1.6,1.6v4
		h11.7V13.1H25z"/>
	<path class="st0" d="M13.3,4L13.3,4c0.5-0.5,1.3-0.8,2-0.8c1.4,0.1,2.6,1.2,2.6,2.6c0,0.8-0.2,1.5-0.8,2c-0.5,0.5-1.2,0.8-2,0.8
		c-0.7,0-1.4-0.3-1.9-0.8l0,0v3.5h3.7c0.9,0,1.6,0.7,1.6,1.6v0.4l-0.3,0.2c-0.4,0.3-0.6,0.7-0.6,1.2c0,0.7,0.6,1.2,1.3,1.3
		c0.4,0,0.7-0.1,1-0.4c0.3-0.3,0.4-0.6,0.4-1c0-0.5-0.2-0.9-0.6-1.1l-0.3-0.2V13c0-0.9,0.7-1.6,1.6-1.6H25V0H13.3V4z"/>
	<path class="st0" d="M11.8,20.8L11.8,20.8c-0.5,0.5-1.2,0.8-1.9,0.8c-0.8,0-1.5-0.3-2-0.8s-0.8-1.3-0.8-2c0.1-1.4,1.2-2.6,2.6-2.6
		c0.8,0,1.5,0.3,2,0.8l0,0v-3.6H8.2l0,0c-0.9,0-1.6-0.7-1.6-1.6v-0.4l0.3-0.2c0.4-0.2,0.6-0.7,0.6-1.1S7.4,9.3,7.1,9
		C6.8,8.7,6.5,8.6,6,8.6c-0.7,0-1.2,0.6-1.3,1.3c0,0.5,0.2,0.9,0.6,1.2l0.3,0.2v0.4c0,0.9-0.7,1.6-1.6,1.6l0,0H0V25h11.6L11.8,20.8z
		"/>
	<path class="st0" d="M4.3,11.7L4.3,11.7c-0.5-0.5-0.8-1.3-0.8-2C3.6,8.3,4.7,7.1,6.1,7c0.8,0,1.5,0.2,2,0.8C8.7,8.3,9,9,9.1,9.8
		c0,0.7-0.3,1.4-0.8,1.9l0,0h3.5V8.2c0-0.9,0.7-1.6,1.6-1.6h0.4L14,6.9c0.2,0.4,0.7,0.6,1.1,0.6c0.4,0,0.7-0.1,1-0.4
		c0.3-0.3,0.4-0.6,0.4-1c0-0.7-0.6-1.2-1.3-1.3c-0.5,0-0.9,0.2-1.2,0.6l-0.2,0.3h-0.4c-0.9,0-1.6-0.7-1.6-1.6l0,0l0,0V0H0.3v11.6
		L4.3,11.7z"/>
</g>
</svg>
