<?xml version="1.0" encoding="utf-8"?>
<!-- Generator: Adobe Illustrator 22.1.0, SVG Export Plug-In . SVG Version: 6.00 Build 0)  -->
<svg version="1.1" id="Layer_1" xmlns="http://www.w3.org/2000/svg" xmlns:xlink="http://www.w3.org/1999/xlink" x="0px" y="0px"
	 viewBox="0 0 50 50" style="enable-background:new 0 0 50 50;" xml:space="preserve">
<style type="text/css">
	.st0{fill:#F8CA3D;}
	.st1{fill:#FFFFFF;}
</style>
<circle class="st0" cx="25" cy="25" r="25"/>
<g>
	<path class="st1" d="M37.3,25.7l-3.9,0c0,0,0,0,0,0c0.5,0.5,0.8,1.2,0.8,1.9c0,0.8-0.3,1.5-0.8,2c-0.5,0.5-1.2,0.8-1.9,0.8
		c0,0-0.1,0-0.1,0c-1.4-0.1-2.6-1.2-2.7-2.6c0-0.8,0.3-1.5,0.8-2c0,0,0,0,0,0l-3.7,0l0,3.6c0,0.9-0.7,1.6-1.6,1.6h-0.4l-0.2-0.3
		c-0.3-0.4-0.7-0.6-1.2-0.6c-0.7,0-1.2,0.6-1.3,1.3c0,0.4,0.1,0.7,0.4,1c0.3,0.3,0.6,0.4,1,0.4c0.5,0,0.9-0.2,1.1-0.6l0.2-0.3H24
		c0.9,0,1.6,0.7,1.6,1.6l0,4h11.6V25.7z"/>
	<path class="st1" d="M25.7,16.7C25.7,16.7,25.7,16.7,25.7,16.7c0.5-0.5,1.3-0.8,2-0.8c1.4,0.1,2.6,1.2,2.6,2.6c0,0.8-0.2,1.5-0.8,2
		c-0.5,0.5-1.2,0.8-2,0.8c-0.7,0-1.4-0.3-1.9-0.8c0,0,0,0,0,0l0,3.5l3.7,0c0.9,0,1.6,0.7,1.6,1.6v0.4l-0.3,0.2
		c-0.4,0.3-0.6,0.7-0.6,1.2c0,0.7,0.6,1.2,1.3,1.3c0.4,0,0.7-0.1,1-0.4c0.3-0.3,0.4-0.6,0.4-1c0-0.5-0.2-0.9-0.6-1.1l-0.3-0.2l0-0.4
		c0-0.9,0.7-1.6,1.6-1.6l3.9,0V12.7H25.7L25.7,16.7z"/>
	<path class="st1" d="M24.2,33.3C24.2,33.3,24.2,33.3,24.2,33.3c-0.5,0.5-1.2,0.8-1.9,0.8c-0.8,0-1.5-0.3-2-0.8
		c-0.5-0.5-0.8-1.3-0.8-2c0.1-1.4,1.2-2.6,2.6-2.6c0.8,0,1.5,0.3,2,0.8c0,0,0,0,0,0l0-3.6l-3.5,0c0,0,0,0,0,0
		c-0.9,0-1.6-0.7-1.6-1.6l0-0.4l0.3-0.2c0.4-0.2,0.6-0.7,0.6-1.1c0-0.4-0.1-0.7-0.4-1c-0.3-0.3-0.6-0.4-1-0.4
		c-0.7,0-1.2,0.6-1.3,1.3c0,0.5,0.2,0.9,0.6,1.2l0.3,0.2l0,0.4c0,0.9-0.7,1.6-1.6,1.6h0l-4,0v11.6h11.5L24.2,33.3z"/>
	<path class="st1" d="M16.8,24.3C16.8,24.3,16.8,24.3,16.8,24.3c-0.5-0.5-0.8-1.3-0.8-2c0.1-1.4,1.2-2.6,2.6-2.7
		c0.8,0,1.5,0.2,2,0.8c0.5,0.5,0.8,1.2,0.9,2c0,0.7-0.3,1.4-0.8,1.9c0,0,0,0,0,0l3.5,0l0-3.5c0-0.9,0.7-1.6,1.6-1.6h0.4l0.2,0.3
		c0.2,0.4,0.7,0.6,1.1,0.6c0.4,0,0.7-0.1,1-0.4c0.3-0.3,0.4-0.6,0.4-1c0-0.7-0.6-1.2-1.3-1.3c-0.5,0-0.9,0.2-1.2,0.6l-0.2,0.3h-0.4
		c-0.9,0-1.6-0.7-1.6-1.6v0l0,0l0-4H12.8v11.5L16.8,24.3z"/>
</g>
</svg>
